<?xml version="1.0" encoding="UTF-8" standalone="no"?>
<!-- Created with Inkscape (http://www.inkscape.org/) -->

<svg
   width="512"
   height="512"
   viewBox="0 0 512 512"
   version="1.1"
   id="svg1"
   xmlns="http://www.w3.org/2000/svg"
   xmlns:svg="http://www.w3.org/2000/svg">
  <defs
     id="defs1" />
  <rect
     style="fill:#ffffff;stroke-width:1.00157;stroke-opacity:0.5"
     id="rect1"
     width="958.92566"
     height="787.03119"
     x="-186.6283"
     y="-144.88249" />
  <g
     id="layer1">
    <path
       style="font-size:334.043px;line-height:0;font-family:'JetBrainsMono Nerd Font';-inkscape-font-specification:'JetBrainsMono Nerd Font';stroke-width:4.48081;stroke-opacity:0.5"
       d="m 144.76374,379.5958 q -27.39153,0 -44.09368,-18.37236 -16.368108,-18.37237 -16.368108,-49.77241 v -53.78092 q 0,-31.73409 16.368108,-50.10645 16.36811,-18.37237 44.09368,-18.37237 20.71066,0 34.07238,10.35533 13.69576,10.35534 16.36811,28.05962 h 0.33404 l -0.66808,-41.75538 v -53.44688 h 30.06387 v 243.85139 h -30.06387 v -35.07451 h -0.33405 q -2.3383,18.03832 -15.70002,28.39365 -13.36172,10.02129 -34.07238,10.02129 z m 10.02129,-26.05535 q 18.7064,0 29.39578,-11.69151 10.68938,-11.6915 10.68938,-32.40217 v -50.10645 q 0,-20.71066 -10.68938,-32.40217 -10.68938,-11.6915 -29.39578,-11.6915 -19.04046,0 -29.72983,10.02129 -10.68938,9.68724 -10.68938,32.40217 v 53.44688 q 0,22.38088 10.68938,32.40217 10.68937,10.02129 29.72983,10.02129 z m 193.74507,25.38727 q -30.73196,0 -47.76815,-13.69577 -16.70215,-14.0298 -16.70215,-39.41707 h 30.06387 q 0,12.69363 9.01916,20.04258 9.01916,7.0149 25.38727,7.0149 h 14.69789 q 16.70215,0 25.72131,-7.34894 9.35321,-7.34895 9.35321,-20.71067 0,-23.71705 -21.7128,-26.72344 l -50.77453,-7.34895 Q 307.10877,288.06802 296.75343,275.37439 286.3981,262.34671 286.3981,241.302 q 0,-24.0511 16.36811,-37.74686 16.70215,-13.69576 45.76389,-13.69576 h 14.69789 q 26.72344,0 43.42559,13.36172 17.03619,13.02767 18.37237,34.40643 h -30.39792 q -0.66808,-9.68725 -9.3532,-16.03407 -8.35108,-6.34681 -22.04684,-6.34681 H 348.5301 q -15.36598,0 -24.0511,7.0149 -8.68511,7.0149 -8.68511,19.04045 0,19.37449 17.70427,22.04684 l 47.43411,6.68086 q 46.76602,6.68086 46.76602,54.78305 0,25.72131 -17.03619,40.08516 -16.70215,14.02981 -47.43411,14.02981 z"
       id="text1"
       aria-label="ds" />
  </g>
</svg>
